<svg width="24" height="24" viewBox="0 0 24 24" fill="none" xmlns="http://www.w3.org/2000/svg">
<path clip-rule="evenodd" d="M20 5H18.8293C18.4175 3.83481 17.3062 3 16 3C14.6938 3 13.5825 3.83481 13.1707 5H4C3.44772 5 3 5.44772 3 6C3 6.55228 3.44772 7 4 7H13.1707C13.5825 8.16519 14.6938 9 16 9C17.3062 9 18.4175 8.16519 18.8293 7H20C20.5523 7 21 6.55228 21 6C21 5.44772 20.5523 5 20 5ZM16 7C16.5523 7 17 6.55228 17 6C17 5.44772 16.5523 5 16 5C15.4477 5 15 5.44772 15 6C15 6.55228 15.4477 7 16 7ZM3 12C3 11.4477 3.44772 11 4 11H5.17071C5.58254 9.83481 6.69378 9 8 9C9.30622 9 10.4175 9.83481 10.8293 11H20C20.5523 11 21 11.4477 21 12C21 12.5523 20.5523 13 20 13H10.8293C10.4175 14.1652 9.30622 15 8 15C6.69378 15 5.58254 14.1652 5.17071 13H4C3.44772 13 3 12.5523 3 12ZM8 13C8.55229 13 9 12.5523 9 12C9 11.4477 8.55229 11 8 11C7.44772 11 7 11.4477 7 12C7 12.5523 7.44772 13 8 13ZM4 17C3.44772 17 3 17.4477 3 18C3 18.5523 3.44772 19 4 19H13.1707C13.5825 20.1652 14.6938 21 16 21C17.3062 21 18.4175 20.1652 18.8293 19H20C20.5523 19 21 18.5523 21 18C21 17.4477 20.5523 17 20 17H18.8293C18.4175 15.8348 17.3062 15 16 15C14.6938 15 13.5825 15.8348 13.1707 17H4ZM17 18C17 18.5523 16.5523 19 16 19C15.4477 19 15 18.5523 15 18C15 17.4477 15.4477 17 16 17C16.5523 17 17 17.4477 17 18Z" fill="currentColor"/>
</svg>
