<?xml version="1.0" encoding="UTF-8" standalone="no"?>
<!-- Created with Inkscape (http://www.inkscape.org/) -->

<svg
   width="1024"
   height="1024"
   viewBox="0 0 270.93333 270.93333"
   version="1.1"
   id="svg1"
   inkscape:version="1.4.3 (0d15f75042, 2025-12-25)"
   sodipodi:docname="io.github.phase1geo.textshine.svg"
   xmlns:inkscape="http://www.inkscape.org/namespaces/inkscape"
   xmlns:sodipodi="http://sodipodi.sourceforge.net/DTD/sodipodi-0.dtd"
   xmlns="http://www.w3.org/2000/svg"
   xmlns:svg="http://www.w3.org/2000/svg">
  <sodipodi:namedview
     id="namedview1"
     pagecolor="#ffffff"
     bordercolor="#000000"
     borderopacity="0.25"
     inkscape:showpageshadow="2"
     inkscape:pageopacity="0.0"
     inkscape:pagecheckerboard="0"
     inkscape:deskcolor="#d1d1d1"
     inkscape:document-units="mm"
     inkscape:zoom="0.72159091"
     inkscape:cx="498.89764"
     inkscape:cy="568.18898"
     inkscape:window-width="1920"
     inkscape:window-height="1065"
     inkscape:window-x="0"
     inkscape:window-y="30"
     inkscape:window-maximized="1"
     inkscape:current-layer="layer1" />
  <defs
     id="defs1">
    <radialGradient
       id="starGrad"
       cx="128"
       cy="115.40003"
       r="176.39951"
       fx="128"
       fy="115.40003"
       gradientUnits="userSpaceOnUse">
      <stop
         offset="0%"
         stop-color="#FFF176"
         id="stop1" />
      <stop
         offset="100%"
         stop-color="#FFD600"
         id="stop2" />
    </radialGradient>
    <radialGradient
       id="circleGrad"
       cx="33.866665"
       cy="29.739165"
       r="28.892501"
       fx="33.866665"
       fy="29.739165"
       gradientUnits="userSpaceOnUse"
       gradientTransform="matrix(1.081028,0,0,1.081028,-3.1736772,-2.9507607)">
      <stop
         offset="0%"
         stop-color="#FFA040"
         id="stop3" />
      <stop
         offset="100%"
         stop-color="#F57C00"
         id="stop4" />
    </radialGradient>
  </defs>
  <g
     inkscape:label="Layer 1"
     inkscape:groupmode="layer"
     id="layer1">
    <!-- Star -->
    <g
       transform="matrix(1.0646049,0.18771854,-0.18771854,1.0646049,22.956468,-24.876563)"
       id="g4">
      <polygon
         points="216,216 164,204 128,248 92,204 40,216 52,164 8,128 52,92 40,40 92,52 128,8 164,52 216,40 204,92 248,128 204,164 "
         fill="url(#starGrad)"
         stroke="#d4aa00"
         stroke-width="12"
         stroke-linejoin="round"
         id="polygon4"
         style="fill:url(#starGrad)" />
    </g>
    <!-- Smaller orange circle -->
    <circle
       cx="135.19791"
       cy="135.42084"
       r="84.320198"
       fill="url(#circleGrad)"
       id="circle4"
       style="fill:url(#circleGrad);stroke-width:1.08103" />
    <!-- Clean modern T -->
    <g
       transform="matrix(1.0365605,0.30686134,-0.30686134,1.0365605,40.565993,-35.219723)"
       id="g5">
      <path
         d="M 86.581181,87.250989 C 86.581181,79.250989 100,76 108,76 l 40,0 c 8,0 20.34684,4.712622 20.34684,12.712622 C 168.34684,96.712622 156,100 148,100 l -9.98872,0.81952 0.24184,72.03733 C 138.27997,180.85681 133.33333,188 128,188 c -5.33333,0 -8.83738,-8.32478 -8.92642,-16.32429 L 118.27756,100.15617 108,100 C 100.00092,99.87845 86.581181,95.250989 86.581181,87.250989 Z"
         fill="#000000"
         id="path4"
         sodipodi:nodetypes="ssssscssscss" />
    </g>
  </g>
</svg>
